<svg width="348" height="49" viewBox="0 0 348 49" fill="none" xmlns="http://www.w3.org/2000/svg">
<g filter="url(#filter0_d_1104_1612)">
<rect x="5" y="5" width="338" height="39" rx="19.5" fill="white"/>
</g>
<path d="M37.3748 26.9167H36.3873L36.0373 26.5904C37.5373 24.8988 38.3123 22.5909 37.8873 20.1379C37.2998 16.7788 34.3998 14.0963 30.8998 13.6854C25.6123 13.0571 21.1623 17.3588 21.8123 22.47C22.2373 25.8534 25.0123 28.6567 28.4873 29.2246C31.0248 29.6354 33.4123 28.8863 35.1623 27.4363L35.4998 27.7746V28.7292L40.8123 33.8646C41.3248 34.36 42.1623 34.36 42.6748 33.8646C43.1873 33.3692 43.1873 32.5596 42.6748 32.0642L37.3748 26.9167ZM29.8748 26.9167C26.7623 26.9167 24.2498 24.4879 24.2498 21.4792C24.2498 18.4704 26.7623 16.0417 29.8748 16.0417C32.9873 16.0417 35.4998 18.4704 35.4998 21.4792C35.4998 24.4879 32.9873 26.9167 29.8748 26.9167Z" fill="black"/>
<line x1="295.5" y1="9.5" x2="295.5" y2="39.5" stroke="black" stroke-linecap="round"/>
<path d="M316 26.9166C318.075 26.9166 319.75 25.2975 319.75 23.2916V16.0416C319.75 14.0358 318.075 12.4166 316 12.4166C313.925 12.4166 312.25 14.0358 312.25 16.0416V23.2916C312.25 25.2975 313.925 26.9166 316 26.9166ZM323.387 23.2916C322.775 23.2916 322.262 23.7266 322.162 24.3187C321.65 27.1583 319.087 29.3333 316 29.3333C312.912 29.3333 310.35 27.1583 309.837 24.3187C309.737 23.7266 309.225 23.2916 308.612 23.2916C307.85 23.2916 307.25 23.9441 307.362 24.6691C307.975 28.2941 310.975 31.1337 314.75 31.6533V34.1666C314.75 34.8312 315.312 35.375 316 35.375C316.687 35.375 317.25 34.8312 317.25 34.1666V31.6533C321.025 31.1337 324.025 28.2941 324.637 24.6691C324.762 23.9441 324.15 23.2916 323.387 23.2916Z" fill="#F43400"/>
<defs>
<filter id="filter0_d_1104_1612" x="0" y="0" width="348" height="49" filterUnits="userSpaceOnUse" color-interpolation-filters="sRGB">
<feFlood flood-opacity="0" result="BackgroundImageFix"/>
<feColorMatrix in="SourceAlpha" type="matrix" values="0 0 0 0 0 0 0 0 0 0 0 0 0 0 0 0 0 0 127 0" result="hardAlpha"/>
<feOffset/>
<feGaussianBlur stdDeviation="2.5"/>
<feComposite in2="hardAlpha" operator="out"/>
<feColorMatrix type="matrix" values="0 0 0 0 0.894118 0 0 0 0 0.313726 0 0 0 0 0.137255 0 0 0 1 0"/>
<feBlend mode="normal" in2="BackgroundImageFix" result="effect1_dropShadow_1104_1612"/>
<feBlend mode="normal" in="SourceGraphic" in2="effect1_dropShadow_1104_1612" result="shape"/>
</filter>
</defs>
</svg>
