<svg width="39" height="36" viewBox="0 0 39 36" fill="none" xmlns="http://www.w3.org/2000/svg">
<path d="M11.7725 30.2043V10.3775H30.9797C43.3715 10.3775 39.6539 24.0084 31.5993 22.7693C31.5993 26.7346 27.8818 29.3782 26.023 30.2043H11.7725Z" fill="#F43400"/>
<path d="M32.2188 12.6332C36.5559 12.2363 39.6538 19.0518 32.2188 20.6879V12.6332Z" fill="white"/>
<path d="M37.4537 30.8239H1.23926C1.23926 33.798 5.36985 34.9545 7.43514 35.1611H29.7403C34.2014 35.1611 36.7413 32.2696 37.4537 30.8239Z" fill="#F43400"/>
<path d="M26.0228 0.464111C25.1967 1.0837 24.4119 2.07504 25.4032 3.56205C26.6424 5.42082 28.5011 6.04041 25.4032 9.13835M19.8269 0.464111C19.8269 0.464111 16.729 1.70329 18.5877 3.56205C20.547 5.52136 21.6857 6.04041 17.9681 9.13835M1.23926 30.8239H37.4537C36.7413 32.2696 34.2014 35.1611 29.7403 35.1611C25.2793 35.1611 13.0114 35.1611 7.43514 35.1611C5.36985 34.9545 1.23926 33.798 1.23926 30.8239Z" stroke="#F43400"/>
<circle cx="6.19596" cy="25.8672" r="4.45671" fill="white" stroke="#F43400"/>
<circle cx="4.33736" cy="24.0085" r="0.619588" fill="#F43400"/>
<circle cx="8.05513" cy="24.0085" r="0.619588" fill="#F43400"/>
<circle cx="4.33736" cy="27.726" r="0.619588" fill="#F43400"/>
<circle cx="8.05513" cy="27.726" r="0.619588" fill="#F43400"/>
<circle cx="11.152" cy="25.8672" r="4.45671" fill="white" stroke="#F43400"/>
<circle cx="9.29342" cy="24.0084" r="0.619588" fill="#F43400"/>
<circle cx="13.0112" cy="24.0084" r="0.619588" fill="#F43400"/>
<circle cx="9.29342" cy="27.726" r="0.619588" fill="#F43400"/>
<circle cx="13.0112" cy="27.726" r="0.619588" fill="#F43400"/>
<path d="M0 30.2043L38.4145 30.2043" stroke="white" stroke-width="0.25"/>
</svg>
