<svg width="44" height="46" viewBox="0 0 44 46" fill="none" xmlns="http://www.w3.org/2000/svg">
<ellipse cx="22" cy="22.738" rx="22" ry="22.738" fill="white"/>
<path d="M37.6933 18.9417H36.3673V18.8711H21.5509V25.677H30.8548C29.4974 29.6389 25.8501 32.483 21.5509 32.483C16.096 32.483 11.6734 27.9119 11.6734 22.2741C11.6734 16.6362 16.096 12.0652 21.5509 12.0652C24.0689 12.0652 26.3596 13.0469 28.1039 14.6506L32.7603 9.83793C29.8201 7.00581 25.8872 5.25924 21.5509 5.25924C12.4595 5.25924 5.08834 12.8776 5.08834 22.2741C5.08834 31.6705 12.4595 39.2889 21.5509 39.2889C30.6424 39.2889 38.0135 31.6705 38.0135 22.2741C38.0135 21.1332 37.8999 20.0196 37.6933 18.9417Z" fill="#FFC107"/>
<path d="M6.98641 14.3545L12.3952 18.4542C13.8587 14.7093 17.4031 12.0652 21.5509 12.0652C24.0688 12.0652 26.3596 13.0469 28.1038 14.6506L32.7602 9.83793C29.82 7.00581 25.8871 5.25924 21.5509 5.25924C15.2276 5.25924 9.7439 8.9489 6.98641 14.3545Z" fill="#FF3D00"/>
<path d="M21.551 39.2887C25.8033 39.2887 29.6671 37.6068 32.5883 34.8716L27.4932 30.4154C25.7848 31.7582 23.6973 32.4845 21.551 32.4827C17.2691 32.4827 13.6333 29.6608 12.2636 25.7228L6.89519 29.9977C9.61974 35.508 15.1528 39.2887 21.551 39.2887Z" fill="#4CAF50"/>
<path d="M37.6933 18.9417H36.3672V18.8711H21.5509V25.677H30.8547C30.2054 27.5626 29.0359 29.2103 27.4906 30.4165L27.493 30.4148L32.5882 34.871C32.2277 35.2096 38.0135 30.7815 38.0135 22.2741C38.0135 21.1332 37.8999 20.0196 37.6933 18.9417Z" fill="#1976D2"/>
</svg>
