<svg width="32" height="32" viewBox="0 0 32 32" fill="none" xmlns="http://www.w3.org/2000/svg">
<path d="M16 12C16.5523 12 17 11.5523 17 11C17 10.4477 16.5523 10 16 10C15.4477 10 15 10.4477 15 11C15 11.5523 15.4477 12 16 12Z" fill="#F43400"/>
<path d="M16 2C13.0837 2.00344 10.2878 3.16347 8.22564 5.22563C6.16348 7.28778 5.00345 10.0837 5.00001 13C4.99652 15.3832 5.77499 17.7018 7.21601 19.6C7.21601 19.6 7.51601 19.995 7.56501 20.052L16 30L24.439 20.047C24.483 19.994 24.784 19.6 24.784 19.6L24.785 19.597C26.2253 17.6996 27.0034 15.3821 27 13C26.9966 10.0837 25.8365 7.28778 23.7744 5.22563C21.7122 3.16347 18.9163 2.00344 16 2V2ZM16 8C16.5934 8 17.1734 8.17595 17.6667 8.50559C18.1601 8.83524 18.5446 9.30377 18.7717 9.85195C18.9987 10.4001 19.0581 11.0033 18.9424 11.5853C18.8266 12.1672 18.5409 12.7018 18.1213 13.1213C17.7018 13.5409 17.1672 13.8266 16.5853 13.9424C16.0033 14.0581 15.4001 13.9987 14.852 13.7716C14.3038 13.5446 13.8352 13.1601 13.5056 12.6667C13.176 12.1734 13 11.5933 13 11C13.0008 10.2046 13.3171 9.44199 13.8796 8.87956C14.442 8.31712 15.2046 8.00079 16 8V8ZM20 19H18V17H14V19H12V17C12.0005 16.4697 12.2114 15.9613 12.5864 15.5864C12.9613 15.2114 13.4697 15.0005 14 15H18C18.5303 15.0005 19.0387 15.2114 19.4136 15.5864C19.7886 15.9613 19.9995 16.4697 20 17V19Z" fill="#F43400"/>
</svg>
