<svg width="38" height="38" viewBox="0 0 38 38" fill="none" xmlns="http://www.w3.org/2000/svg">
<path d="M10.0585 30C3.93164 26.5359 2.31858 23.257 3.24081 18.7787C3.92165 15.4719 6.15101 12.7816 6.36477 9.48113C7.31709 11.2197 7.71501 12.4734 7.82142 14.2902C10.8503 10.5674 12.8518 5.41365 12.9703 0C12.9703 0 20.8593 4.65025 21.377 11.6745C22.0561 10.2267 22.398 7.9272 21.7189 6.4369C23.7562 7.92728 35.6813 21.1579 20.1036 30C23.0324 24.2791 20.8592 16.5597 15.774 12.9945C16.1136 14.5275 15.5182 20.2451 13.2685 22.7574C13.8919 18.5595 12.6754 16.7845 12.6754 16.7845C12.6754 16.7845 12.2579 19.1358 10.638 21.5111C9.1588 23.6801 8.13384 25.9823 10.0585 30V30Z" fill="#F43400"/>
</svg>
