<svg width="36" height="35" viewBox="0 0 36 35" fill="none" xmlns="http://www.w3.org/2000/svg">
<line x1="0.356461" y1="34.6435" x2="34.6434" y2="0.356524" stroke="#F43400"/>
<circle cx="15.3354" cy="19.3692" r="4.03798" fill="#F43400" stroke="#F43400"/>
<circle cx="23.4029" cy="11.3017" r="4.03798" fill="#F43400" stroke="#F43400"/>
<rect x="8.27629" y="18.0594" width="11.501" height="2.56537" rx="1.26777" transform="rotate(45 8.27629 18.0594)" fill="white" stroke="#F43400"/>
<rect x="16.3438" y="10.4961" width="11.501" height="2.56537" rx="1.26777" transform="rotate(45 16.3438 10.4961)" fill="white" stroke="#F43400"/>
<rect x="24.4113" y="2.42861" width="11.501" height="2.56537" rx="1.26777" transform="rotate(45 24.4113 2.42861)" fill="white" stroke="#F43400"/>
<path d="M33.9808 10.2606L33.6122 10.3464C33.1729 10.4487 32.7118 10.3169 32.3928 9.9979L25.826 3.43109C25.5767 3.18179 25.4467 2.83728 25.4692 2.48542L25.4917 2.13168C25.5862 0.650571 27.7565 0.625527 27.8851 2.10411C27.9336 2.66164 28.192 3.17997 28.6079 3.55436L32.7745 7.30431C33.0915 7.58964 33.4834 7.77847 33.9041 7.84859C35.2314 8.0698 35.2913 9.9556 33.9808 10.2606Z" fill="#F43400" stroke="#F43400"/>
<path d="M5.76593 20.4104L6.13445 20.3246C6.57383 20.2223 7.03487 20.3541 7.35387 20.6731L13.9207 27.2399C14.17 27.4892 14.3 27.8337 14.2775 28.1856L14.255 28.5393C14.1605 30.0204 11.9902 30.0455 11.8616 28.5669C11.8131 28.0093 11.5547 27.491 11.1388 27.1166L6.97223 23.3667C6.65521 23.0813 6.26328 22.8925 5.84257 22.8224C4.51529 22.6012 4.45537 20.7154 5.76593 20.4104Z" fill="#F43400" stroke="#F43400"/>
<path d="M14.3269 20.8818C14.8312 21.3861 16.0413 21.9911 16.848 20.3776" stroke="white"/>
<path d="M22.8987 13.3186C23.4029 13.8228 24.613 14.4278 25.4198 12.8143" stroke="white"/>
</svg>
