<svg width="33" height="33" viewBox="0 0 33 33" fill="none" xmlns="http://www.w3.org/2000/svg">
<path d="M30.8388 20.3676L27.9892 17.8299C27.1642 17.0957 27.1642 15.8928 27.9892 15.1586L30.8388 12.6192C31.6638 11.885 31.4443 11.2019 30.3504 11.0946L26.5719 10.7366C25.4796 10.6343 24.8889 9.6921 25.2667 8.64765L27.2715 3.0657C27.6477 2.01795 27.1873 1.63845 26.2501 2.2176L21.7935 4.9731C21.5727 5.11141 21.326 5.20312 21.0685 5.24259C20.811 5.28207 20.5482 5.26847 20.2961 5.20264C20.0441 5.13681 19.8082 5.02013 19.6029 4.85978C19.3976 4.69943 19.2272 4.4988 19.1023 4.2702L17.4886 1.3893C16.9458 0.419103 16.0498 0.415803 15.4971 1.3761L13.9972 3.9831C13.4412 4.94835 12.169 5.35755 11.1708 4.9005L8.53077 3.6894C7.52757 3.2274 6.76032 3.7587 6.81972 4.8708L6.96162 7.53555C7.02267 8.64765 6.20097 9.7911 5.14002 10.0782L2.59077 10.7613C1.53147 11.0484 1.33677 11.8833 2.16177 12.6176L5.01132 15.1569C5.83632 15.8912 5.83632 17.094 5.01132 17.8283L2.16177 20.3676C1.33677 21.1019 1.55457 21.8147 2.64522 21.9467L6.10197 22.3658C7.19262 22.4978 7.79982 23.4713 7.45167 24.5289L5.67957 29.9046C5.33142 30.9623 5.82807 31.3715 6.78177 30.8204L10.8457 28.4675C11.3198 28.2049 11.8747 28.1284 12.4022 28.2529C12.9297 28.3774 13.3918 28.6939 13.6986 29.1407L15.3849 31.68C15.9987 32.6024 16.921 32.5529 17.4309 31.5678L18.9142 28.7084C19.1612 28.234 19.5837 27.8748 20.0916 27.7074C20.5996 27.54 21.1528 27.5777 21.6334 27.8124L24.4945 29.243C25.4812 29.733 26.2386 29.2265 26.1792 28.1177L26.0356 25.4496C25.9779 24.3375 26.7963 23.1974 27.8605 22.9103L30.4065 22.2239C31.4691 21.9368 31.6638 21.1019 30.8388 20.3676ZM18.1503 23.1H14.8503V19.8H18.1503V23.1ZM18.1503 18.15H14.8503V9.9H18.1503V18.15Z" fill="#F43400"/>
</svg>
