<svg width="190" height="76" viewBox="0 0 190 76" fill="none" xmlns="http://www.w3.org/2000/svg">
<path d="M141.49 10.7292C143.466 1.07271 154.44 1.0429 159.681 2.23506C155.189 4.0233 154.665 12.0704 154.965 15.8703V34.4233C154.785 46.0468 159.232 47.1645 160.13 47.835C148.092 52.8421 142.837 44.0351 141.49 39.788V10.7292Z" fill="#E45023" stroke="#F0F0F0"/>
<path d="M159.727 2.23486C155.938 3.58932 154.601 10.5874 155.047 15.5537L171.984 25.2606L155.047 34.516C154.824 42.6428 157.053 46.4803 160.173 47.8349L183.127 34.516C191.507 26.5699 186.619 18.8646 183.127 16.0052L159.727 2.23486Z" fill="#E45023" stroke="#F0F0F0"/>
<path d="M59.8034 34.9926C58.8247 23.1991 71.1715 13.7312 78.202 10.3742C79.0994 0.52685 93.459 3.43629 89.6446 14.1789C88.9268 17.2226 90.6921 17.5359 91.6641 17.3121C93.6836 12.836 98.1708 14.6265 99.0683 17.3121C101.402 18.3864 101.836 15.6709 101.761 14.1789C96.1518 4.55529 111.185 -0.592206 113.204 10.3742C130.436 17.894 132.219 29.8908 131.154 34.9926C127.454 52.71 103.592 52.71 100.415 34.9926C96.1069 38.9315 92.0383 36.6338 90.5421 34.9926C82.9304 56.2864 60.921 48.4629 59.8034 34.9926Z" fill="#0F0F0F" stroke="#F0F0F0"/>
<path d="M74.8453 45.7806C82.2874 45.7806 88.3205 39.7759 88.3205 32.3688C88.3205 24.9617 82.2874 18.957 74.8453 18.957C67.4032 18.957 61.3701 24.9617 61.3701 32.3688C61.3701 39.7759 67.4032 45.7806 74.8453 45.7806Z" fill="#E45023"/>
<path d="M115.72 45.7806C123.162 45.7806 129.195 39.7759 129.195 32.3688C129.195 24.9617 123.162 18.957 115.72 18.957C108.278 18.957 102.245 24.9617 102.245 32.3688C102.245 39.7759 108.278 45.7806 115.72 45.7806Z" fill="#E45023"/>
<path d="M95.5072 35.4982C97.4918 35.4982 99.1006 33.8969 99.1006 31.9217C99.1006 29.9465 97.4918 28.3452 95.5072 28.3452C93.5226 28.3452 91.9138 29.9465 91.9138 31.9217C91.9138 33.8969 93.5226 35.4982 95.5072 35.4982Z" fill="#E45023"/>
<path d="M81.3294 37.3447L84.9816 41.2318L84.0132 42.2902L82.3584 43.529L78.8755 39.787C76.2129 41.0168 72.4712 40.1508 69.7043 37.3966C66.3629 34.0883 65.7363 29.3422 68.2773 26.8133C70.8354 24.2671 75.6038 24.8906 78.9281 28.2163C81.695 30.9704 82.5651 34.6945 81.3294 37.3447Z" fill="#F0F0F0"/>
<path d="M108.084 43.4332L106.512 42.2038L105.389 40.9744L109.632 37.3979C109.331 37.0993 109.093 36.3216 108.93 35.9304C108.767 35.5392 108.684 35.1197 108.684 34.696C108.684 34.2722 108.767 33.8527 108.93 33.4615C109.093 33.0703 109.331 32.7152 109.632 32.4167L118.639 23.5391L119.987 24.8802L112.922 32.1084L114.479 33.6334L121.559 26.5416L123.075 28.0097L115.954 35.1097L117.478 36.667L124.703 29.5744L126.051 30.9155L117.17 39.9603C115.905 41.2257 113.863 41.2257 112.615 39.9603H111.902L108.084 43.4332Z" fill="#F0F0F0"/>
<path d="M39.6844 8.451C45.6135 5.58982 43.4032 2.86276 41.6066 1.74512C56.6987 5.14276 54.4079 17.9291 49.3417 20.7451C42.5049 24.5451 25.6702 33.6204 18.1241 37.7334C10.578 41.8463 8.75892 46.4591 10.5556 47.1646C-2.20089 42.1575 0.282637 31.6981 5.32266 28.3451C14.3061 23.0549 33.7553 11.6698 39.6844 8.451Z" fill="#E45023" stroke="#F0F0F0"/>
<path d="M3.3013 1.74316L41.6873 1.74942C46.0402 4.47021 42.2222 6.92905 42.2222 6.92905L28.9042 14.4843H11.8356C4.28948 12.6961 3.00185 5.24511 3.3013 1.74316Z" fill="#E45023" stroke="#F0F0F0"/>
<path d="M40.855 33.9761H25.2107C10.9325 39.7805 9.23356 45.1123 10.5556 47.1643L51.6518 47.3878C51.8278 38.0655 44.5274 34.5624 40.855 33.9761Z" fill="#E45023" stroke="#F0F0F0"/>
<path d="M35.4846 71.9762V59.7715L35.0354 57.4915L35.4846 56.1503H46.6016L47.7245 56.8209L46.2423 59.9503L44.221 59.7268H39.3025L39.5271 62.1856H45.5685V65.6503H42.851L39.5271 65.4268V68.422L39.7742 70.6573L39.5271 71.9762H35.4846ZM55.7319 72.1997C54.7738 72.1997 53.8378 72.0879 52.9246 71.8644C52.0263 71.6261 51.2101 71.2086 50.4766 70.6126C49.7579 70.0167 49.1816 69.1896 48.7473 68.1315C48.3282 67.0733 48.1184 65.7173 48.1184 64.0632C48.1184 62.4091 48.3282 61.0532 48.7473 59.995C49.1816 58.9368 49.7579 58.1097 50.4766 57.5138C51.2101 56.9179 52.0263 56.5079 52.9246 56.2844C53.8378 56.0461 54.7738 55.9268 55.7319 55.9268C56.69 55.9268 57.6184 56.0461 58.5168 56.2844C59.43 56.5227 60.2461 56.9402 60.9648 57.5362C61.6983 58.1321 62.275 58.9592 62.6941 60.0173C63.1284 61.0755 63.3454 62.4239 63.3454 64.0632C63.3454 65.7026 63.1284 67.0509 62.6941 68.1091C62.275 69.1673 61.6983 69.9943 60.9648 70.5903C60.2461 71.1862 59.43 71.6038 58.5168 71.842C57.6184 72.0803 56.69 72.1997 55.7319 72.1997ZM55.7319 68.3997C56.84 68.3997 57.6782 68.072 58.2473 67.4162C58.8164 66.7603 59.1007 65.6427 59.1007 64.0632C59.1007 62.4838 58.8164 61.3661 58.2473 60.7103C57.6782 60.0545 56.84 59.7268 55.7319 59.7268C54.6391 59.7268 53.8081 60.0621 53.239 60.7326C52.6699 61.4032 52.3856 62.5133 52.3856 64.0632C52.3856 65.6132 52.6699 66.7232 53.239 67.3938C53.8081 68.0644 54.6391 68.3997 55.7319 68.3997ZM66.0364 71.9762V59.7491L65.5872 57.4915L66.0364 56.1503H73.2232C74.316 56.1503 75.2965 56.3215 76.1652 56.6644C77.0483 56.9921 77.7445 57.5585 78.2539 58.3632C78.7776 59.1532 79.0399 60.2485 79.0399 61.6491C79.0399 62.9156 78.8077 63.9439 78.3437 64.7338C77.8793 65.5086 77.2356 66.0897 76.4123 66.4773L76.6369 66.7232L78.8603 69.495L80.1404 70.635V71.9762H75.0872L71.943 67.215H70.0789V68.3773L70.3035 70.6126L70.0789 71.9762H66.0364ZM70.0789 63.7056H72.2799C73.0583 63.7056 73.6795 63.5639 74.144 63.2809C74.608 62.9827 74.8402 62.4391 74.8402 61.6491C74.8402 61.0979 74.7279 60.6879 74.5033 60.4197C74.2787 60.1367 73.9643 59.9503 73.56 59.8609C73.1706 59.7715 72.7138 59.7268 72.1901 59.7268H69.8544L70.0789 63.7056ZM92.9472 71.9762V59.7715L92.498 57.4915L92.9472 56.1503H104.064L105.187 56.8209L103.705 59.9503L101.684 59.7268H96.7652L96.9898 62.1856H103.031V65.6503H100.314L96.9898 65.4268V68.422L97.2368 70.6573L96.9898 71.9762H92.9472ZM113.195 72.1997C112.236 72.1997 111.3 72.0879 110.387 71.8644C109.489 71.6261 108.673 71.2086 107.939 70.6126C107.221 70.0167 106.644 69.1896 106.21 68.1315C105.79 67.0733 105.581 65.7173 105.581 64.0632C105.581 62.4091 105.79 61.0532 106.21 59.995C106.644 58.9368 107.221 58.1097 107.939 57.5138C108.673 56.9179 109.489 56.5079 110.387 56.2844C111.3 56.0461 112.236 55.9268 113.195 55.9268C114.153 55.9268 115.081 56.0461 115.979 56.2844C116.893 56.5227 117.709 56.9402 118.427 57.5362C119.161 58.1321 119.737 58.9592 120.157 60.0173C120.591 61.0755 120.808 62.4239 120.808 64.0632C120.808 65.7026 120.591 67.0509 120.157 68.1091C119.737 69.1673 119.161 69.9943 118.427 70.5903C117.709 71.1862 116.893 71.6038 115.979 71.842C115.081 72.0803 114.153 72.1997 113.195 72.1997ZM113.195 68.3997C114.302 68.3997 115.141 68.072 115.71 67.4162C116.279 66.7603 116.563 65.6427 116.563 64.0632C116.563 62.4838 116.279 61.3661 115.71 60.7103C115.141 60.0545 114.302 59.7268 113.195 59.7268C112.101 59.7268 111.27 60.0621 110.702 60.7326C110.133 61.4032 109.848 62.5133 109.848 64.0632C109.848 65.6132 110.133 66.7232 110.702 67.3938C111.27 68.0644 112.101 68.3997 113.195 68.3997ZM130.214 72.1997C129.256 72.1997 128.32 72.0879 127.406 71.8644C126.508 71.6261 125.692 71.2086 124.958 70.6126C124.24 70.0167 123.663 69.1896 123.229 68.1315C122.81 67.0733 122.6 65.7173 122.6 64.0632C122.6 62.4091 122.81 61.0532 123.229 59.995C123.663 58.9368 124.24 58.1097 124.958 57.5138C125.692 56.9179 126.508 56.5079 127.406 56.2844C128.32 56.0461 129.256 55.9268 130.214 55.9268C131.172 55.9268 132.1 56.0461 132.999 56.2844C133.912 56.5227 134.728 56.9402 135.447 57.5362C136.181 58.1321 136.757 58.9592 137.176 60.0173C137.61 61.0755 137.827 62.4239 137.827 64.0632C137.827 65.7026 137.61 67.0509 137.176 68.1091C136.757 69.1673 136.181 69.9943 135.447 70.5903C134.728 71.1862 133.912 71.6038 132.999 71.842C132.1 72.0803 131.172 72.1997 130.214 72.1997ZM130.214 68.3997C131.322 68.3997 132.16 68.072 132.729 67.4162C133.298 66.7603 133.583 65.6427 133.583 64.0632C133.583 62.4838 133.298 61.3661 132.729 60.7103C132.16 60.0545 131.322 59.7268 130.214 59.7268C129.121 59.7268 128.29 60.0621 127.721 60.7326C127.152 61.4032 126.867 62.5133 126.867 64.0632C126.867 65.6132 127.152 66.7232 127.721 67.3938C128.29 68.0644 129.121 68.3997 130.214 68.3997ZM140.518 71.9762V59.7491L140.069 57.5138L140.518 56.1503H147.211C148.289 56.1503 149.322 56.2545 150.31 56.4632C151.313 56.6568 152.204 57.0297 152.983 57.5809C153.776 58.1321 154.398 58.9221 154.847 59.9503C155.311 60.9785 155.543 62.3121 155.543 63.9515C155.543 65.5908 155.311 66.9392 154.847 67.9973C154.383 69.0403 153.754 69.8526 152.96 70.4338C152.167 71.015 151.268 71.4173 150.265 71.6409C149.277 71.8644 148.259 71.9762 147.211 71.9762H140.518ZM144.606 68.3997H147.211C148.528 68.3997 149.539 68.0568 150.243 67.3715C150.947 66.6709 151.298 65.5309 151.298 63.9515C151.298 62.372 150.939 61.2767 150.22 60.6656C149.516 60.0397 148.513 59.7268 147.211 59.7268H144.606V68.3997Z" fill="#E45023"/>
</svg>
