<svg width="32" height="32" viewBox="0 0 32 32" fill="none" xmlns="http://www.w3.org/2000/svg">
<path d="M15.9999 18.6667C18.2133 18.6667 19.9999 16.88 19.9999 14.6667V6.66666C19.9999 4.45332 18.2133 2.66666 15.9999 2.66666C13.7866 2.66666 11.9999 4.45332 11.9999 6.66666V14.6667C11.9999 16.88 13.7866 18.6667 15.9999 18.6667ZM23.8799 14.6667C23.2266 14.6667 22.6799 15.1467 22.5733 15.8C22.0266 18.9333 19.2933 21.3333 15.9999 21.3333C12.7066 21.3333 9.97327 18.9333 9.42661 15.8C9.31994 15.1467 8.77327 14.6667 8.11994 14.6667C7.30661 14.6667 6.66661 15.3867 6.78661 16.1867C7.43994 20.1867 10.6399 23.32 14.6666 23.8933V26.6667C14.6666 27.4 15.2666 28 15.9999 28C16.7333 28 17.3333 27.4 17.3333 26.6667V23.8933C21.3599 23.32 24.5599 20.1867 25.2133 16.1867C25.3466 15.3867 24.6933 14.6667 23.8799 14.6667Z" fill="#E45023"/>
</svg>
