<svg width="25" height="27" viewBox="0 0 25 27" fill="none" xmlns="http://www.w3.org/2000/svg">
<path fill-rule="evenodd" clip-rule="evenodd" d="M6.24967 22.5H18.7497C19.3226 22.5 19.7913 23.0062 19.7913 23.625C19.7913 24.2438 19.3226 24.75 18.7497 24.75H6.24967C5.67676 24.75 5.20801 24.2438 5.20801 23.625C5.20801 23.0062 5.67676 22.5 6.24967 22.5ZM12.4997 7.875C11.3538 7.875 10.4163 8.8875 10.4163 10.125C10.4163 11.3625 11.3538 12.375 12.4997 12.375C13.0522 12.375 13.5821 12.1379 13.9728 11.716C14.3635 11.294 14.583 10.7217 14.583 10.125C14.583 9.52826 14.3635 8.95597 13.9728 8.53401C13.5821 8.11205 13.0522 7.875 12.4997 7.875V7.875ZM12.4997 2.25C15.9059 2.25 19.7913 5.0175 19.7913 10.2937C19.7913 13.6462 17.5726 17.1788 13.1351 20.8575C12.7601 21.1725 12.2393 21.1725 11.8643 20.8575C7.42676 17.1675 5.20801 13.6462 5.20801 10.2937C5.20801 5.0175 9.09342 2.25 12.4997 2.25Z" fill="#FD5900"/>
</svg>
