<svg width="38" height="38" viewBox="0 0 38 38" fill="none" xmlns="http://www.w3.org/2000/svg">
<path d="M28.5 26.125H13.683L10.64 28.7227L7.59703 26.125H1.1875V27.9062C1.1875 30.1766 2.75574 32.0261 4.69508 32.0625C4.87543 33.1847 5.31184 34.1985 5.96867 34.9919C6.94019 36.1653 8.35258 36.8125 9.94531 36.8125H19.7422C21.3349 36.8125 22.7473 36.1653 23.7188 34.9904C24.3757 34.197 24.8121 33.1832 24.9924 32.061C26.0226 32.0425 26.9481 31.5118 27.5901 30.6783C28.1897 29.8793 28.5094 28.9051 28.5 27.9062V26.125ZM7.79297 23.75L10.6378 25.8422L13.5078 23.75H28.5V23.1562C28.4992 22.4721 28.2625 21.8092 27.8299 21.2792C27.3972 20.7493 26.7951 20.3847 26.125 20.2469C26.0641 18.0433 25.1602 16.199 23.4895 14.9031C21.9443 13.6978 19.8795 13.0625 17.5156 13.0625H12.1719C7.10867 13.0625 3.67902 15.94 3.5625 20.2469C2.89239 20.3847 2.29027 20.7493 1.85764 21.2792C1.42502 21.8092 1.18834 22.4721 1.1875 23.1562V23.75H7.79297Z" fill="#F24E1E"/>
<path d="M34.3692 7.125H28.8332L29.4953 4.47836L32.8047 3.33984L32.0625 1.1875L27.4609 2.67187L26.3855 7.125H15.4375V9.5H16.8291L16.9671 10.6875H17.5156C20.4102 10.6875 22.9826 11.4965 24.9464 13.0269C26.0387 13.8685 26.9242 14.9487 27.5352 16.1849C27.9117 16.9518 28.1797 17.7674 28.3315 18.6081C29.4375 19.2891 30.2576 20.3494 30.6385 21.5911C31.0195 22.8327 30.9352 24.1706 30.4015 25.3546C30.7142 26.169 30.8747 27.0339 30.875 27.9062C30.875 29.5643 30.3109 31.1444 29.2867 32.3557C28.6529 33.1108 27.841 33.6961 26.9243 34.059C26.6119 34.9492 26.1465 35.7781 25.5491 36.5082C25.4615 36.6136 25.3717 36.7168 25.2796 36.8162H30.875C32.0625 36.8162 32.582 36.2225 32.7305 35.1092L35.432 9.50371H36.8125V7.125H34.3692Z" fill="#F24E1E"/>
</svg>
