<svg width="113" height="43" viewBox="0 0 113 43" fill="none" xmlns="http://www.w3.org/2000/svg">
<path d="M84.7205 5.92974C85.9072 0.122723 92.4967 0.104803 95.6433 0.821717C92.9463 1.89709 92.6316 6.73627 92.8115 9.02144V20.1784C92.7036 27.1684 95.3736 27.8405 95.913 28.2437C88.6851 31.2548 85.5296 25.9586 84.7205 23.4046V5.92974Z" fill="#E45023" stroke="#F0F0F0"/>
<path d="M95.6711 0.821735C93.3962 1.63625 92.5933 5.84459 92.8609 8.83115L103.031 14.6685L92.8609 20.2344C92.7271 25.1214 94.0653 27.4292 95.9387 28.2438L109.721 20.2344C114.753 15.4559 111.818 10.8222 109.721 9.10265L95.6711 0.821735Z" fill="#E45023" stroke="#F0F0F0"/>
<path d="M35.6731 20.5207C35.0854 13.4286 42.4989 7.73494 46.7202 5.71614C47.2591 -0.20565 55.8811 1.54397 53.5908 8.00413C53.1599 9.83449 54.2198 10.0229 54.8034 9.88832C56.016 7.1966 58.7103 8.27329 59.2491 9.88832C60.6502 10.5343 60.9108 8.90137 60.866 8.00413C57.498 2.2169 66.5243 -0.878606 67.7366 5.71614C78.0834 10.2382 79.1541 17.4527 78.5144 20.5207C76.2931 31.1752 61.9656 31.1752 60.0577 20.5207C57.471 22.8894 55.0281 21.5076 54.1297 20.5207C49.5594 33.326 36.3441 28.6212 35.6731 20.5207Z" fill="#0F0F0F" stroke="#F0F0F0"/>
<path d="M44.7048 27.0082C49.1733 27.0082 52.7958 23.3972 52.7958 18.9429C52.7958 14.4885 49.1733 10.8776 44.7048 10.8776C40.2362 10.8776 36.6138 14.4885 36.6138 18.9429C36.6138 23.3972 40.2362 27.0082 44.7048 27.0082Z" fill="#E45023"/>
<path d="M69.2475 27.0082C73.716 27.0082 77.3385 23.3972 77.3385 18.9429C77.3385 14.4885 73.716 10.8776 69.2475 10.8776C64.779 10.8776 61.1565 14.4885 61.1565 18.9429C61.1565 23.3972 64.779 27.0082 69.2475 27.0082Z" fill="#E45023"/>
<path d="M57.111 20.8248C58.3026 20.8248 59.2686 19.8619 59.2686 18.674C59.2686 17.4862 58.3026 16.5233 57.111 16.5233C55.9194 16.5233 54.9534 17.4862 54.9534 18.674C54.9534 19.8619 55.9194 20.8248 57.111 20.8248Z" fill="#E45023"/>
<path d="M48.5982 21.9353L50.7911 24.2728L50.2096 24.9093L49.2161 25.6543L47.1248 23.404C45.526 24.1435 43.2794 23.6227 41.6181 21.9665C39.6118 19.977 39.2355 17.1229 40.7612 15.6021C42.2972 14.0709 45.1603 14.4459 47.1564 16.4459C48.8177 18.1021 49.3401 20.3416 48.5982 21.9353Z" fill="#F0F0F0"/>
<path d="M64.6626 25.5967L63.7187 24.8574L63.0444 24.1181L65.592 21.9673C65.4116 21.7878 65.2684 21.3201 65.1707 21.0849C65.0728 20.8496 65.0227 20.5973 65.0227 20.3425C65.0227 20.0877 65.0728 19.8354 65.1707 19.6001C65.2684 19.3649 65.4116 19.1514 65.592 18.9718L71.0006 13.6332L71.8097 14.4397L67.5678 18.7865L68.5023 19.7035L72.7536 15.4388L73.6638 16.3216L69.388 20.5913L70.3031 21.5278L74.6415 17.2626L75.4506 18.0691L70.1181 23.5083C69.3589 24.2692 68.1326 24.2692 67.3831 23.5083H66.9551L64.6626 25.5967Z" fill="#F0F0F0"/>
<path d="M23.5929 4.55964C27.153 2.83905 25.8259 1.1991 24.7471 0.526995C33.8089 2.5702 32.4335 10.2594 29.3915 11.9528C25.2865 14.238 15.1783 19.6955 10.6473 22.1689C6.11633 24.6423 5.0241 27.4162 6.1029 27.8405C-1.55658 24.8294 -0.0653774 18.5395 2.96084 16.5232C8.35484 13.3419 20.0329 6.49532 23.5929 4.55964Z" fill="#E45023" stroke="#F0F0F0"/>
<path d="M1.7472 0.525988L24.7956 0.529751C27.4092 2.16593 25.1168 3.64457 25.1168 3.64457L17.1201 8.18803H6.87151C2.34054 7.11265 1.5674 2.63192 1.7472 0.525988Z" fill="#E45023" stroke="#F0F0F0"/>
<path d="M24.2958 19.9096H14.9024C6.32922 23.4001 5.3091 26.6065 6.10291 27.8405L30.7786 27.9749C30.8843 22.3688 26.5008 20.2622 24.2958 19.9096Z" fill="#E45023" stroke="#F0F0F0"/>
<path d="M21.0712 42.7613V35.4219L20.8015 34.0508L21.0712 33.2442H27.7463L28.4206 33.6475L27.5305 35.5294L26.3169 35.395H23.3637L23.4985 36.8736H27.126V38.9572H25.4943L23.4985 38.8227V40.624L23.6469 41.9682L23.4985 42.7613H21.0712ZM33.2285 42.8957C32.6532 42.8957 32.0912 42.8285 31.5429 42.6941C31.0035 42.5508 30.5134 42.2997 30.073 41.9413C29.6415 41.583 29.2955 41.0856 29.0347 40.4492C28.783 39.8129 28.6571 38.9975 28.6571 38.0028C28.6571 37.0081 28.783 36.1926 29.0347 35.5563C29.2955 34.9199 29.6415 34.4226 30.073 34.0642C30.5134 33.7058 31.0035 33.4593 31.5429 33.3249C32.0912 33.1816 32.6532 33.1098 33.2285 33.1098C33.8038 33.1098 34.3612 33.1816 34.9006 33.3249C35.4489 33.4682 35.939 33.7193 36.3705 34.0777C36.8109 34.436 37.1572 34.9334 37.4089 35.5697C37.6697 36.2061 37.7999 37.0169 37.7999 38.0028C37.7999 38.9886 37.6697 39.7995 37.4089 40.4358C37.1572 41.0722 36.8109 41.5695 36.3705 41.9279C35.939 42.2863 35.4489 42.5374 34.9006 42.6806C34.3612 42.8239 33.8038 42.8957 33.2285 42.8957ZM33.2285 40.6106C33.8939 40.6106 34.3971 40.4135 34.7388 40.0191C35.0805 39.6247 35.2513 38.9526 35.2513 38.0028C35.2513 37.0529 35.0805 36.3808 34.7388 35.9864C34.3971 35.5921 33.8939 35.395 33.2285 35.395C32.5723 35.395 32.0734 35.5966 31.7317 35.9999C31.39 36.4032 31.2192 37.0707 31.2192 38.0028C31.2192 38.9349 31.39 39.6024 31.7317 40.0057C32.0734 40.4089 32.5723 40.6106 33.2285 40.6106ZM39.4157 42.7613V35.4084L39.146 34.0508L39.4157 33.2442H43.7309C44.3871 33.2442 44.9758 33.3472 45.4974 33.5534C46.0277 33.7505 46.4457 34.0911 46.7515 34.575C47.066 35.0501 47.2235 35.7087 47.2235 36.551C47.2235 37.3126 47.0841 37.931 46.8055 38.406C46.5266 38.8719 46.1401 39.2214 45.6458 39.4545L45.7806 39.6024L47.1156 41.2692L47.8843 41.9548V42.7613H44.8501L42.9622 39.8981H41.843V40.5971L41.9778 41.9413L41.843 42.7613H39.4157ZM41.843 37.7877H43.1645C43.6319 37.7877 44.0049 37.7025 44.2838 37.5323C44.5624 37.353 44.7018 37.0261 44.7018 36.551C44.7018 36.2195 44.6344 35.973 44.4995 35.8117C44.3647 35.6415 44.1759 35.5294 43.9332 35.4756C43.6993 35.4219 43.4251 35.395 43.1106 35.395H41.7081L41.843 37.7877ZM55.574 42.7613V35.4219L55.3043 34.0508L55.574 33.2442H62.249L62.9233 33.6475L62.0333 35.5294L60.8196 35.395H57.8664L58.0013 36.8736H61.6287V38.9572H59.997L58.0013 38.8227V40.624L58.1496 41.9682L58.0013 42.7613H55.574ZM67.7312 42.8957C67.1557 42.8957 66.5939 42.8285 66.0456 42.6941C65.5062 42.5508 65.0162 42.2997 64.5757 41.9413C64.1442 41.583 63.7979 41.0856 63.5374 40.4492C63.2855 39.8129 63.1598 38.9975 63.1598 38.0028C63.1598 37.0081 63.2855 36.1926 63.5374 35.5563C63.7979 34.9199 64.1442 34.4226 64.5757 34.0642C65.0162 33.7058 65.5062 33.4593 66.0456 33.3249C66.5939 33.1816 67.1557 33.1098 67.7312 33.1098C68.3065 33.1098 68.864 33.1816 69.4034 33.3249C69.9517 33.4682 70.4417 33.7193 70.8732 34.0777C71.3137 34.436 71.6597 34.9334 71.9116 35.5697C72.1721 36.2061 72.3026 37.0169 72.3026 38.0028C72.3026 38.9886 72.1721 39.7995 71.9116 40.4358C71.6597 41.0722 71.3137 41.5695 70.8732 41.9279C70.4417 42.2863 69.9517 42.5374 69.4034 42.6806C68.864 42.8239 68.3065 42.8957 67.7312 42.8957ZM67.7312 40.6106C68.3963 40.6106 68.8998 40.4135 69.2415 40.0191C69.583 39.6247 69.754 38.9526 69.754 38.0028C69.754 37.0529 69.583 36.3808 69.2415 35.9864C68.8998 35.5921 68.3963 35.395 67.7312 35.395C67.0748 35.395 66.5758 35.5966 66.2344 35.9999C65.8927 36.4032 65.722 37.0707 65.722 38.0028C65.722 38.9349 65.8927 39.6024 66.2344 40.0057C66.5758 40.4089 67.0748 40.6106 67.7312 40.6106ZM77.9502 42.8957C77.3749 42.8957 76.8131 42.8285 76.2645 42.6941C75.7251 42.5508 75.2354 42.2997 74.7947 41.9413C74.3632 41.583 74.0171 41.0856 73.7563 40.4492C73.5047 39.8129 73.3787 38.9975 73.3787 38.0028C73.3787 37.0081 73.5047 36.1926 73.7563 35.5563C74.0171 34.9199 74.3632 34.4226 74.7947 34.0642C75.2354 33.7058 75.7251 33.4593 76.2645 33.3249C76.8131 33.1816 77.3749 33.1098 77.9502 33.1098C78.5257 33.1098 79.0829 33.1816 79.6223 33.3249C80.1709 33.4682 80.6606 33.7193 81.0922 34.0777C81.5329 34.436 81.8789 34.9334 82.1305 35.5697C82.3913 36.2061 82.5216 37.0169 82.5216 38.0028C82.5216 38.9886 82.3913 39.7995 82.1305 40.4358C81.8789 41.0722 81.5329 41.5695 81.0922 41.9279C80.6606 42.2863 80.1709 42.5374 79.6223 42.6806C79.0829 42.8239 78.5257 42.8957 77.9502 42.8957ZM77.9502 40.6106C78.6155 40.6106 79.119 40.4135 79.4605 40.0191C79.8022 39.6247 79.9729 38.9526 79.9729 38.0028C79.9729 37.0529 79.8022 36.3808 79.4605 35.9864C79.119 35.5921 78.6155 35.395 77.9502 35.395C77.294 35.395 76.795 35.5966 76.4533 35.9999C76.1119 36.4032 75.9409 37.0707 75.9409 38.0028C75.9409 38.9349 76.1119 39.6024 76.4533 40.0057C76.795 40.4089 77.294 40.6106 77.9502 40.6106ZM84.1374 42.7613V35.4084L83.8677 34.0642L84.1374 33.2442H88.1559C88.8032 33.2442 89.4235 33.3069 90.0168 33.4324C90.6191 33.5488 91.1541 33.7731 91.6215 34.1045C92.0981 34.436 92.4711 34.9111 92.7408 35.5294C93.0194 36.1478 93.1588 36.9497 93.1588 37.9356C93.1588 38.9214 93.0194 39.7322 92.7408 40.3686C92.4622 40.9958 92.0846 41.4843 91.608 41.8338C91.1315 42.1833 90.5921 42.4252 89.9898 42.5597C89.3965 42.6941 88.7851 42.7613 88.1559 42.7613H84.1374ZM86.5916 40.6106H88.1559C88.9469 40.6106 89.5537 40.4043 89.9764 39.9922C90.399 39.5709 90.6102 38.8854 90.6102 37.9356C90.6102 36.9857 90.3944 36.3271 89.9629 35.9596C89.5403 35.5832 88.938 35.395 88.1559 35.395H86.5916V40.6106Z" fill="#E45023"/>
</svg>
