<svg width="33" height="33" viewBox="0 0 33 33" fill="none" xmlns="http://www.w3.org/2000/svg">
<path d="M23.375 29.2119L23.3778 20.9619C21.4279 22.5278 19.0008 23.3794 16.5 23.375C14.0003 23.3791 11.5743 22.5281 9.625 20.9633L9.62912 29.2133C9.62957 29.4018 9.68172 29.5866 9.77988 29.7476C9.87805 29.9086 10.0185 30.0396 10.1859 30.1264C10.3533 30.2132 10.5413 30.2524 10.7295 30.2397C10.9176 30.2271 11.0987 30.1631 11.253 30.0547L16.5014 26.3601L21.7511 30.0547C21.9055 30.1636 22.0869 30.2279 22.2754 30.2406C22.4638 30.2534 22.6522 30.2142 22.8199 30.1272C22.9876 30.0402 23.1282 29.9089 23.2263 29.7475C23.3244 29.5861 23.3764 29.4008 23.3764 29.2119H23.375ZM26.125 12.375C26.125 11.111 25.876 9.85943 25.3923 8.69167C24.9086 7.52391 24.1997 6.46286 23.3059 5.5691C22.4121 4.67533 21.3511 3.96636 20.1833 3.48266C19.0156 2.99896 17.764 2.75 16.5 2.75C15.236 2.75 13.9844 2.99896 12.8167 3.48266C11.6489 3.96636 10.5879 4.67533 9.6941 5.5691C8.80033 6.46286 8.09136 7.52391 7.60766 8.69167C7.12396 9.85943 6.875 11.111 6.875 12.375C6.875 14.9277 7.88906 17.3759 9.6941 19.1809C11.4991 20.9859 13.9473 22 16.5 22C19.0527 22 21.5009 20.9859 23.3059 19.1809C25.1109 17.3759 26.125 14.9277 26.125 12.375ZM16.8149 7.75775L18.0689 10.3056L20.8794 10.7112C21.1681 10.7525 21.2822 11.1073 21.0746 11.3094L19.041 13.2894L19.5222 16.0889C19.5334 16.1534 19.5262 16.2197 19.5016 16.2804C19.477 16.341 19.4358 16.3935 19.3829 16.432C19.33 16.4705 19.2673 16.4934 19.202 16.4981C19.1367 16.5029 19.0714 16.4892 19.0135 16.4588L16.5 15.136L13.9879 16.4588C13.9299 16.4892 13.8646 16.5029 13.7994 16.4981C13.7341 16.4934 13.6714 16.4705 13.6185 16.432C13.5655 16.3935 13.5244 16.341 13.4998 16.2804C13.4752 16.2197 13.468 16.1534 13.4791 16.0889L13.9604 13.2908L11.9254 11.3107C11.8781 11.2651 11.8446 11.207 11.8287 11.1432C11.8128 11.0794 11.8152 11.0125 11.8355 10.9499C11.8559 10.8874 11.8934 10.8319 11.9438 10.7897C11.9942 10.7475 12.0555 10.7203 12.1206 10.7112L14.9311 10.3056L16.1851 7.75775C16.214 7.69884 16.2588 7.6492 16.3145 7.61449C16.3701 7.57977 16.4344 7.56137 16.5 7.56137C16.5656 7.56137 16.6299 7.57977 16.6855 7.61449C16.7412 7.6492 16.786 7.69884 16.8149 7.75775V7.75775Z" fill="#F24E1E"/>
</svg>
